<svg xmlns="http://www.w3.org/2000/svg" xmlns:xlink="http://www.w3.org/1999/xlink" width="32" height="32" viewBox="0 0 32 32"><defs><clipPath id="a"><rect width="32" height="32" rx="5" fill="#f0f"/></clipPath><clipPath id="c"><rect width="32" height="32"/></clipPath></defs><g id="b" clip-path="url(#c)"><g clip-path="url(#a)"><rect width="32" height="32" fill="#0e9eda"/><path d="M-7.438-26.03c-.8-.036-2.451,0-3.269,0a.617.617,0,0,0-.627.494l-.05.288a.216.216,0,0,1-.361.121,1.486,1.486,0,0,0-.329-.224A7.164,7.164,0,0,0-15.77-26a8.918,8.918,0,0,0-7.019,5.751,44.723,44.723,0,0,0-1.2,7.326c-.184,2.318,2.033,5.147,5.531,5.286.942.039,2.571.259,3.7-.743.042-.039.089-.078.127-.114a.217.217,0,0,1,.358.2l-.014.085a.56.56,0,0,0,.471.661h3.021a.629.629,0,0,0,.652-.459l3.13-17.346C-6.956-25.65-7.133-26.019-7.438-26.03Zm-5.294,7.024c-.149,1.248-.666,3.384-.914,4.507a3.682,3.682,0,0,1-3.049,2.691c-.184,0-.556.018-.74,0a2.2,2.2,0,0,1-1.941-2.506,41.016,41.016,0,0,1,1.2-5.659,3.521,3.521,0,0,1,2.861-1.855,3.3,3.3,0,0,1,.924.092A2.471,2.471,0,0,1-12.732-19.006Z" transform="translate(31 33.047)" fill="#fff"/></g></g></svg>